<svg width="161" height="65" viewBox="0 0 161 65" fill="none" xmlns="http://www.w3.org/2000/svg">
<rect width="161" height="65" rx="20" fill="#4B1979"/>
<path d="M49.7583 20.72L62.0027 28.7163L59.7189 30.4307L48.4012 23.0396L37.1938 30.428L34.9258 28.7082L47.0362 20.7267C47.4419 20.4574 47.9139 20.3137 48.3963 20.3125C48.8787 20.3113 49.3514 20.4527 49.7583 20.72V20.72Z" fill="#F9CC00"/>
<path d="M26.9708 30.3315L25.3671 29.1169C23.3022 27.5532 23.3924 24.2811 25.5595 22.8536C25.5597 22.8535 25.5598 22.8534 25.56 22.8533L46.4835 9.05906C46.4839 9.05876 46.4844 9.05846 46.4848 9.05816C47.0518 8.68223 47.7144 8.47973 48.3941 8.47804C49.0738 8.47635 49.7374 8.67558 50.3062 9.04877C50.3067 9.04905 50.3071 9.04933 50.3075 9.0496L71.4273 22.843C73.6116 24.2689 73.701 27.5615 71.6189 29.1248L50.5 44.9817L26.9708 30.3315ZM26.9708 30.3315V30.3308M26.9708 30.3315V30.3308M26.9708 30.3308L46.2947 44.9727L46.2955 44.9733C47.5487 45.9209 49.2407 45.9283 50.4994 44.9821L26.9708 30.3308ZM48.404 13.4026L67.8526 26.1043L48.4056 40.7024L29.1366 26.1033L48.404 13.4026Z" fill="#F9CC00" stroke="#F9CC00" stroke-width="2"/>
<path d="M27.811 33.3993L30.079 35.1191L27.5235 36.8024C27.5212 36.804 27.519 36.8058 27.517 36.8078L27.5156 36.8118C27.5057 36.833 27.5003 36.8561 27.4999 36.8796C27.4984 36.907 27.5033 36.9344 27.5143 36.9595C27.5147 36.9604 27.5152 36.9613 27.5156 36.9622L27.5248 36.9703L48.4028 52.7883L69.475 36.9703L69.4841 36.9622L69.4855 36.9595L69.4881 36.9554C69.4973 36.9318 69.5013 36.9063 69.4999 36.8809C69.4996 36.857 69.4943 36.8334 69.4841 36.8118L69.4828 36.8078L69.4763 36.8037L66.8775 35.1056L69.1613 33.3926L70.8806 34.5152C72.478 35.5579 72.5515 38.0089 71.0185 39.16L49.899 55.0159C48.9986 55.693 47.7977 55.6889 46.8986 55.0091L25.9708 39.1518C24.451 38.0008 24.5245 35.566 26.11 34.5206L27.811 33.3993V33.3993Z" fill="#F9CC00"/>
<path d="M89.925 52V10.14H102.145V25.74H116.575V10.14H128.795V52H116.575V36.4H102.145V52H89.925Z" fill="#F9CC00"/>
</svg>
